<?xml version="1.0" encoding="utf-8"?>
<!-- Generator: Adobe Illustrator 24.0.1, SVG Export Plug-In . SVG Version: 6.00 Build 0)  -->
<svg version="1.1" id="Layer_1" xmlns="http://www.w3.org/2000/svg" xmlns:xlink="http://www.w3.org/1999/xlink" x="0px" y="0px"
	 viewBox="0 0 648 504" style="enable-background:new 0 0 648 504;" xml:space="preserve">
<style type="text/css">
	.st0{fill:#231F20;}
</style>
<g>
	<path class="st0" d="M346.3,402.5c42-13.2,75.5-33.1,100.4-59.6c24.9-26.5,34.6-60.7,29-102.6c-12.1-9.9-29.2-20.1-51.2-30.6
		c-22-10.5-41.3-18.5-57.8-24c-4.4-17.6-4.4-34.7,0-51.2s11.6-31.1,21.5-43.8s21.5-23.1,34.7-31.4c13.2-8.3,25.3-12.9,36.3-14
		c38.5,3.3,72.1,17.6,100.7,43s42.9,61.8,42.9,109.2c0,27.6-4.7,55.1-14.1,82.7c-9.4,27.6-23.5,53.2-42.2,76.9
		c-18.7,23.7-42.5,44.6-71.1,62.8c-28.7,18.2-62.9,31.1-102.6,38.9L346.3,402.5z M45.1,402.5c42-13.2,75.5-33.1,100.4-59.6
		s34.6-60.7,29-102.6c-12.1-9.9-29.2-20.1-51.2-30.6s-41.3-18.5-57.8-24c-4.4-17.6-4.4-34.7,0-51.2S77.1,103.3,87,90.7
		s21.5-23.1,34.7-31.4s25.3-12.9,36.3-14c38.5,3.3,72.1,17.6,100.7,43c28.6,25.4,42.9,61.8,42.9,109.2c0,27.6-4.7,55.1-14.1,82.7
		c-9.4,27.6-23.5,53.2-42.2,76.9c-18.7,23.7-42.5,44.6-71.1,62.8C145.6,438,111.4,451,71.6,458.7L45.1,402.5z"/>
</g>
</svg>
