<?xml version="1.0" encoding="utf-8"?>
<!-- Generator: Adobe Illustrator 24.0.1, SVG Export Plug-In . SVG Version: 6.00 Build 0)  -->
<svg version="1.1" id="Layer_1" xmlns="http://www.w3.org/2000/svg" xmlns:xlink="http://www.w3.org/1999/xlink" x="0px" y="0px"
	 viewBox="0 0 648 504" style="enable-background:new 0 0 648 504;" xml:space="preserve">
<style type="text/css">
	.st0{fill:#231F20;}
</style>
<g>
	<path class="st0" d="M301.7,101.5c-42,13.2-75.5,33.1-100.4,59.6s-34.6,60.7-29,102.6c12.1,9.9,29.2,20.1,51.2,30.6
		s41.3,18.5,57.8,24c4.4,17.6,4.4,34.7,0,51.2c-4.4,16.5-11.6,31.1-21.5,43.8c-9.9,12.7-21.5,23.1-34.7,31.4s-25.3,12.9-36.3,14
		c-38.5-3.3-72.1-17.6-100.7-43C59.4,390.4,45.1,354,45.1,306.6c0-27.6,4.7-55.1,14.1-82.7c9.4-27.6,23.5-53.2,42.2-76.9
		c18.7-23.7,42.5-44.6,71.1-62.8S235.5,53,275.2,45.3L301.7,101.5z M602.9,101.5c-42,13.2-75.5,33.1-100.4,59.6s-34.6,60.7-29,102.6
		c12.1,9.9,29.2,20.1,51.2,30.6c22,10.5,41.3,18.5,57.8,24c4.4,17.6,4.4,34.7,0,51.2c-4.4,16.5-11.6,31.1-21.5,43.8
		c-9.9,12.7-21.5,23.1-34.7,31.4c-13.2,8.3-25.3,12.9-36.3,14c-38.5-3.3-72.1-17.6-100.7-43c-28.6-25.4-42.9-61.8-42.9-109.2
		c0-27.6,4.7-55.1,14.1-82.7c9.4-27.6,23.5-53.2,42.2-76.9c18.7-23.7,42.5-44.6,71.1-62.8C502.4,66,536.6,53,576.4,45.3L602.9,101.5
		z"/>
</g>
</svg>
